# xmcd
#
# Track frame offsets: 
#        150
#        23693
#        51372
#        77089
#        107380
#        133412
#        156654
#        191560
#        256328
#
# Disc length: 3853 seconds
#
# Revision: 0
# Processed by: cddbd v1.5.2PL0 Copyright (c) Steve Scherf et al.
# Submitted via: ExactAudioCopy v0.99pb4
#
DISCID=780f0b09
DTITLE=Jing Chi - 3D
DYEAR=2004
DGENRE=Blues
TTITLE0=Colonel Panic
TTITLE1=Chi Town
TTITLE2=3hui (good men) Move On
TTITLE3=zest Hidden Treasure
TTITLE4=ki 3i (all things are well established) Time Is A Magazine
TTITLE5=Mezzanine Blues
TTITLE6=Blues Alley
TTITLE7=3in (the sun shines clear and bright) It's Nobody's Fault But 
TTITLE7=Mine
TTITLE8=wires Tangled Up
EXTD=
EXTT0=
EXTT1=
EXTT2=
EXTT3=
EXTT4=
EXTT5=
EXTT6=
EXTT7=
EXTT8=
PLAYORDER=
